<svg xmlns="http://www.w3.org/2000/svg" width="1200" height="520" viewBox="0 0 1200 520">
<rect width="1200" height="520" fill="white"/>
<text x="600" y="30" text-anchor="middle" font-family="Arial" font-size="21" font-weight="bold">Brayton-Cycle First-Law Efficiency: 10-Point Parametric Comparison</text>
<text x="600" y="52" text-anchor="middle" font-family="Arial" font-size="12" fill="#555">Case L = low extreme case; Case H = high extreme case</text>
<g transform="translate(15,0)">
    <rect x="0" y="0" width="360" height="350" fill="white" stroke="#c8d2dc"/>
    <text x="180" y="27" text-anchor="middle" font-family="Arial" font-size="16" font-weight="bold">Compressor efficiency</text>
    <line x1="58" y1="62" x2="58" y2="307" stroke="#333"/>
    <line x1="58" y1="307" x2="336" y2="307" stroke="#333"/>
    <line x1="58" y1="284.72727272727275" x2="336" y2="284.72727272727275" stroke="#dfe5ea"/><text x="50" y="288.72727272727275" text-anchor="end" font-family="Arial" font-size="11">-100</text><line x1="58" y1="210.4848484848485" x2="336" y2="210.4848484848485" stroke="#dfe5ea"/><text x="50" y="214.4848484848485" text-anchor="end" font-family="Arial" font-size="11">-50</text><line x1="58" y1="136.24242424242425" x2="336" y2="136.24242424242425" stroke="#dfe5ea"/><text x="50" y="140.24242424242425" text-anchor="end" font-family="Arial" font-size="11">0</text><line x1="58" y1="62" x2="336" y2="62" stroke="#dfe5ea"/><text x="50" y="66" text-anchor="end" font-family="Arial" font-size="11">50</text>
    <line x1="58" y1="307" x2="58" y2="312" stroke="#333"/><text x="58" y="327" text-anchor="middle" font-family="Arial" font-size="11">0.400</text><line x1="181.3309090909091" y1="307" x2="181.3309090909091" y2="312" stroke="#333"/><text x="181.3309090909091" y="327" text-anchor="middle" font-family="Arial" font-size="11">0.644</text><line x1="336" y1="307" x2="336" y2="312" stroke="#333"/><text x="336" y="327" text-anchor="middle" font-family="Arial" font-size="11">0.950</text>
    <text x="197" y="350" text-anchor="middle" font-family="Arial" font-size="12">ηc</text>
    <text transform="translate(17 184.5) rotate(-90)" text-anchor="middle" font-family="Arial" font-size="12">First-law efficiency, ηᵢ (%)</text>
    <path d="M 58.0 297.6 L 88.8 242.9 L 119.7 212.5 L 150.5 193.2 L 181.3 179.8 L 212.7 170.0 L 243.5 162.4 L 274.3 156.5 L 305.2 151.7 L 336.0 147.8" fill="none" stroke="#1f77b4" stroke-width="2.2"/><circle cx="58.0" cy="297.6" r="3.2"/><circle cx="88.8" cy="242.9" r="3.2"/><circle cx="119.7" cy="212.5" r="3.2"/><circle cx="150.5" cy="193.2" r="3.2"/><circle cx="181.3" cy="179.8" r="3.2"/><circle cx="212.7" cy="170.0" r="3.2"/><circle cx="243.5" cy="162.4" r="3.2"/><circle cx="274.3" cy="156.5" r="3.2"/><circle cx="305.2" cy="151.7" r="3.2"/><circle cx="336.0" cy="147.8" r="3.2"/>
    <path d="M 58.0 151.9 L 88.8 122.9 L 119.7 106.8 L 150.5 96.6 L 181.3 89.5 L 212.7 84.3 L 243.5 80.3 L 274.3 77.1 L 305.2 74.6 L 336.0 72.5" fill="none" stroke="#d62728" stroke-width="2.2"/><rect width="6" height="6" cx="58.0" cy="151.9" r="3.2"/><rect width="6" height="6" cx="88.8" cy="122.9" r="3.2"/><rect width="6" height="6" cx="119.7" cy="106.8" r="3.2"/><rect width="6" height="6" cx="150.5" cy="96.6" r="3.2"/><rect width="6" height="6" cx="181.3" cy="89.5" r="3.2"/><rect width="6" height="6" cx="212.7" cy="84.3" r="3.2"/><rect width="6" height="6" cx="243.5" cy="80.3" r="3.2"/><rect width="6" height="6" cx="274.3" cy="77.1" r="3.2"/><rect width="6" height="6" cx="305.2" cy="74.6" r="3.2"/><rect width="6" height="6" cx="336.0" cy="72.5" r="3.2"/>
    <circle cx="231" cy="42" r="4" fill="#1f77b4"/><text x="240" y="46" font-family="Arial" font-size="11">Case L</text>
    <circle cx="293" cy="42" r="4" fill="#d62728"/><text x="302" y="46" font-family="Arial" font-size="11">Case H</text>
  </g>
<g transform="translate(415,0)">
    <rect x="0" y="0" width="360" height="350" fill="white" stroke="#c8d2dc"/>
    <text x="180" y="27" text-anchor="middle" font-family="Arial" font-size="16" font-weight="bold">Turbine efficiency</text>
    <line x1="58" y1="62" x2="58" y2="307" stroke="#333"/>
    <line x1="58" y1="307" x2="336" y2="307" stroke="#333"/>
    <line x1="58" y1="284.72727272727275" x2="336" y2="284.72727272727275" stroke="#dfe5ea"/><text x="50" y="288.72727272727275" text-anchor="end" font-family="Arial" font-size="11">-100</text><line x1="58" y1="210.4848484848485" x2="336" y2="210.4848484848485" stroke="#dfe5ea"/><text x="50" y="214.4848484848485" text-anchor="end" font-family="Arial" font-size="11">-50</text><line x1="58" y1="136.24242424242425" x2="336" y2="136.24242424242425" stroke="#dfe5ea"/><text x="50" y="140.24242424242425" text-anchor="end" font-family="Arial" font-size="11">0</text><line x1="58" y1="62" x2="336" y2="62" stroke="#dfe5ea"/><text x="50" y="66" text-anchor="end" font-family="Arial" font-size="11">50</text>
    <line x1="58" y1="307" x2="58" y2="312" stroke="#333"/><text x="58" y="327" text-anchor="middle" font-family="Arial" font-size="11">0.400</text><line x1="181.3309090909091" y1="307" x2="181.3309090909091" y2="312" stroke="#333"/><text x="181.3309090909091" y="327" text-anchor="middle" font-family="Arial" font-size="11">0.644</text><line x1="336" y1="307" x2="336" y2="312" stroke="#333"/><text x="336" y="327" text-anchor="middle" font-family="Arial" font-size="11">0.950</text>
    <text x="197" y="350" text-anchor="middle" font-family="Arial" font-size="12">ηt</text>
    <text transform="translate(17 184.5) rotate(-90)" text-anchor="middle" font-family="Arial" font-size="12">First-law efficiency, ηᵢ (%)</text>
    <path d="M 58.0 297.6 L 88.8 285.6 L 119.7 273.5 L 150.5 261.5 L 181.3 249.5 L 212.7 237.4 L 243.5 225.4 L 274.3 213.3 L 305.2 201.3 L 336.0 189.2" fill="none" stroke="#1f77b4" stroke-width="2.2"/><circle cx="58.0" cy="297.6" r="3.2"/><circle cx="88.8" cy="285.6" r="3.2"/><circle cx="119.7" cy="273.5" r="3.2"/><circle cx="150.5" cy="261.5" r="3.2"/><circle cx="181.3" cy="249.5" r="3.2"/><circle cx="212.7" cy="237.4" r="3.2"/><circle cx="243.5" cy="225.4" r="3.2"/><circle cx="274.3" cy="213.3" r="3.2"/><circle cx="305.2" cy="201.3" r="3.2"/><circle cx="336.0" cy="189.2" r="3.2"/>
    <path d="M 58.0 139.6 L 88.8 132.2 L 119.7 124.7 L 150.5 117.3 L 181.3 109.8 L 212.7 102.3 L 243.5 94.9 L 274.3 87.4 L 305.2 80.0 L 336.0 72.5" fill="none" stroke="#d62728" stroke-width="2.2"/><rect width="6" height="6" cx="58.0" cy="139.6" r="3.2"/><rect width="6" height="6" cx="88.8" cy="132.2" r="3.2"/><rect width="6" height="6" cx="119.7" cy="124.7" r="3.2"/><rect width="6" height="6" cx="150.5" cy="117.3" r="3.2"/><rect width="6" height="6" cx="181.3" cy="109.8" r="3.2"/><rect width="6" height="6" cx="212.7" cy="102.3" r="3.2"/><rect width="6" height="6" cx="243.5" cy="94.9" r="3.2"/><rect width="6" height="6" cx="274.3" cy="87.4" r="3.2"/><rect width="6" height="6" cx="305.2" cy="80.0" r="3.2"/><rect width="6" height="6" cx="336.0" cy="72.5" r="3.2"/>
    <circle cx="231" cy="42" r="4" fill="#1f77b4"/><text x="240" y="46" font-family="Arial" font-size="11">Case L</text>
    <circle cx="293" cy="42" r="4" fill="#d62728"/><text x="302" y="46" font-family="Arial" font-size="11">Case H</text>
  </g>
<g transform="translate(815,0)">
    <rect x="0" y="0" width="360" height="350" fill="white" stroke="#c8d2dc"/>
    <text x="180" y="27" text-anchor="middle" font-family="Arial" font-size="16" font-weight="bold">Combustor pressure ratio</text>
    <line x1="58" y1="62" x2="58" y2="307" stroke="#333"/>
    <line x1="58" y1="307" x2="336" y2="307" stroke="#333"/>
    <line x1="58" y1="284.72727272727275" x2="336" y2="284.72727272727275" stroke="#dfe5ea"/><text x="50" y="288.72727272727275" text-anchor="end" font-family="Arial" font-size="11">-100</text><line x1="58" y1="210.4848484848485" x2="336" y2="210.4848484848485" stroke="#dfe5ea"/><text x="50" y="214.4848484848485" text-anchor="end" font-family="Arial" font-size="11">-50</text><line x1="58" y1="136.24242424242425" x2="336" y2="136.24242424242425" stroke="#dfe5ea"/><text x="50" y="140.24242424242425" text-anchor="end" font-family="Arial" font-size="11">0</text><line x1="58" y1="62" x2="336" y2="62" stroke="#dfe5ea"/><text x="50" y="66" text-anchor="end" font-family="Arial" font-size="11">50</text>
    <line x1="58" y1="307" x2="58" y2="312" stroke="#333"/><text x="58" y="327" text-anchor="middle" font-family="Arial" font-size="11">0.600</text><line x1="181.31794871794875" y1="307" x2="181.31794871794875" y2="312" stroke="#333"/><text x="181.31794871794875" y="327" text-anchor="middle" font-family="Arial" font-size="11">0.773</text><line x1="336" y1="307" x2="336" y2="312" stroke="#333"/><text x="336" y="327" text-anchor="middle" font-family="Arial" font-size="11">0.990</text>
    <text x="197" y="350" text-anchor="middle" font-family="Arial" font-size="12">πcc</text>
    <text transform="translate(17 184.5) rotate(-90)" text-anchor="middle" font-family="Arial" font-size="12">First-law efficiency, ηᵢ (%)</text>
    <path d="M 58.0 297.6 L 88.7 295.3 L 120.0 293.2 L 150.7 291.2 L 181.3 289.4 L 212.7 287.7 L 243.3 286.1 L 274.0 284.6 L 305.3 283.2 L 336.0 281.9" fill="none" stroke="#1f77b4" stroke-width="2.2"/><circle cx="58.0" cy="297.6" r="3.2"/><circle cx="88.7" cy="295.3" r="3.2"/><circle cx="120.0" cy="293.2" r="3.2"/><circle cx="150.7" cy="291.2" r="3.2"/><circle cx="181.3" cy="289.4" r="3.2"/><circle cx="212.7" cy="287.7" r="3.2"/><circle cx="243.3" cy="286.1" r="3.2"/><circle cx="274.0" cy="284.6" r="3.2"/><circle cx="305.3" cy="283.2" r="3.2"/><circle cx="336.0" cy="281.9" r="3.2"/>
    <path d="M 58.0 91.8 L 88.7 88.9 L 120.0 86.3 L 150.7 83.9 L 181.3 81.7 L 212.7 79.6 L 243.3 77.7 L 274.0 75.8 L 305.3 74.1 L 336.0 72.5" fill="none" stroke="#d62728" stroke-width="2.2"/><rect width="6" height="6" cx="58.0" cy="91.8" r="3.2"/><rect width="6" height="6" cx="88.7" cy="88.9" r="3.2"/><rect width="6" height="6" cx="120.0" cy="86.3" r="3.2"/><rect width="6" height="6" cx="150.7" cy="83.9" r="3.2"/><rect width="6" height="6" cx="181.3" cy="81.7" r="3.2"/><rect width="6" height="6" cx="212.7" cy="79.6" r="3.2"/><rect width="6" height="6" cx="243.3" cy="77.7" r="3.2"/><rect width="6" height="6" cx="274.0" cy="75.8" r="3.2"/><rect width="6" height="6" cx="305.3" cy="74.1" r="3.2"/><rect width="6" height="6" cx="336.0" cy="72.5" r="3.2"/>
    <circle cx="231" cy="42" r="4" fill="#1f77b4"/><text x="240" y="46" font-family="Arial" font-size="11">Case L</text>
    <circle cx="293" cy="42" r="4" fill="#d62728"/><text x="302" y="46" font-family="Arial" font-size="11">Case H</text>
  </g>
<text x="600" y="490" text-anchor="middle" font-family="Arial" font-size="12" fill="#444">Data points reproduced from the 10-point tables used in the quiz analysis.</text>
</svg>